<?xml version="1.0" encoding="UTF-8"?>
<svg version="1.1" xmlns="http://www.w3.org/2000/svg" width="512" height="512">
<path d="M0 0 C1.14001465 0.00902344 2.2800293 0.01804688 3.45458984 0.02734375 C21.75372469 0.40223 39.55036277 6.96997125 53.1875 19.4375 C54.52554688 20.63826172 54.52554688 20.63826172 55.890625 21.86328125 C65.8414644 31.25676489 72.87333778 42.40354702 77.1875 55.4375 C77.58134888 56.53892334 77.58134888 56.53892334 77.9831543 57.66259766 C81.29144323 68.40455436 80.51330174 79.57639062 80.375 90.6875 C80.35992604 92.80077171 80.34624244 94.91405383 80.33398438 97.02734375 C80.30119351 102.16432273 80.24956057 107.30079467 80.1875 112.4375 C80.8976123 112.4154248 81.60772461 112.39334961 82.33935547 112.37060547 C85.24684809 112.28580126 88.15420575 112.23739721 91.0625 112.1875 C92.07570313 112.15398437 93.08890625 112.12046875 94.1328125 112.0859375 C104.87255474 111.9482485 113.94092698 115.52820909 122.1875 122.4375 C131.31735031 131.66464889 134.4734837 142.07496797 135.7852478 154.75228882 C135.96322594 156.31240175 135.96322594 156.31240175 136.14479959 157.90403211 C136.50455938 161.08063829 136.84656923 164.25882587 137.1875 167.4375 C137.39462049 169.27691299 137.60311815 171.11617158 137.81319046 172.95524979 C138.43542058 178.43512535 139.03056821 183.91777196 139.62353516 189.40087891 C139.84879544 191.47036427 140.07421874 193.53983189 140.29978943 195.60928345 C140.9027269 201.14561825 141.50323926 206.68221337 142.10311937 212.21888018 C142.60689253 216.86641618 143.11188167 221.51381975 143.61685312 226.16122568 C144.80818877 237.12568402 145.99752401 248.09035803 147.18554688 259.05517578 C148.40695691 270.32782899 149.63168402 281.60011835 150.85803568 292.87223494 C151.91644641 302.60174182 152.97285537 312.33146463 154.02766454 322.06136262 C154.65530848 327.85080094 155.28367626 333.64015821 155.9139595 339.42930984 C156.50562469 344.86460103 157.0947715 350.30015957 157.68203926 355.73592758 C157.89681217 357.72005986 158.11244321 359.70409949 158.32903481 361.68803406 C162.93063886 403.85823954 162.93063886 403.85823954 151.21484375 418.984375 C144.97911599 425.72937272 135.60279916 432.16317437 126.14848429 432.56745183 C124.25527316 432.5709478 124.25527316 432.5709478 122.32381535 432.57451439 C121.61820877 432.57716622 120.9126022 432.57981804 120.1856136 432.58255023 C117.80325896 432.59025593 115.42095576 432.59080289 113.03858948 432.59140015 C111.32038506 432.59541395 109.60218159 432.59985204 107.88397926 432.6046797 C103.1480675 432.61666055 98.41216594 432.62229717 93.67624199 432.62686086 C88.57376124 432.63281136 83.47129271 432.64442272 78.36882019 432.65515137 C66.03768735 432.67969005 53.70655045 432.69430572 41.37540069 432.70721143 C37.89285858 432.71092263 34.41031686 432.71489593 30.92777514 432.7189641 C9.30570577 432.74420249 -12.31636423 432.76625758 -33.93844509 432.77869225 C-38.94846537 432.781622 -43.95848563 432.78458365 -48.96850586 432.78759766 C-50.83635498 432.78871673 -50.83635498 432.78871673 -52.74193842 432.78985842 C-72.90924661 432.80250916 -93.07646657 432.83572734 -113.24373352 432.87739949 C-133.94571421 432.91982601 -154.64764975 432.94338822 -175.34967381 432.94861281 C-186.97435585 432.95202636 -198.59890009 432.9637749 -210.22353935 432.99671555 C-220.125068 433.02472717 -230.0264306 433.0357105 -239.92799579 433.02452008 C-244.97862555 433.01933611 -250.02890767 433.02220341 -255.07948685 433.04698563 C-259.70809817 433.06950731 -264.3361127 433.06871553 -268.96473468 433.04978175 C-270.63443845 433.04698582 -272.30418294 433.05255759 -273.97382133 433.06759469 C-287.78633368 433.18433282 -298.41485029 430.71062644 -308.62109375 420.83203125 C-316.92246946 411.76118756 -320.4648124 402.64536857 -320.8125 390.4375 C-320.53369943 385.46382716 -319.94619557 380.53570511 -319.3371582 375.59375 C-319.16552195 374.1322711 -318.99484941 372.67067875 -318.82505798 371.20898438 C-318.36437165 367.26967961 -317.88936684 363.33222956 -317.41089654 359.39505005 C-317.01132395 356.0955904 -316.61900447 352.79528466 -316.22667664 349.49495697 C-315.30042361 341.70372089 -314.36265445 333.91393212 -313.41723633 326.125 C-312.44524108 318.11569605 -311.49114024 310.10440742 -310.5461095 302.0918808 C-309.73113885 295.18675882 -308.90580854 288.28292983 -308.07211751 281.38004303 C-307.57560971 277.26857255 -307.08272803 273.15675696 -306.5995121 269.04370117 C-306.14442182 265.17451392 -305.67627751 261.30711681 -305.19845009 257.44067383 C-305.02622786 256.03001181 -304.85839638 254.6188049 -304.69553757 253.20703125 C-302.83112171 237.09927302 -298.59409845 225.86637856 -286.1875 215.19921875 C-279.927436 210.55565154 -273.14092459 208.30976986 -265.3961792 208.31724548 C-264.29684052 208.31587082 -263.19750183 208.31449615 -262.06484985 208.31307983 C-260.86363495 208.31667511 -259.66242004 208.32027039 -258.42480469 208.32397461 C-256.52198227 208.32375557 -256.52198227 208.32375557 -254.58071899 208.3235321 C-251.10584589 208.32324526 -247.63100732 208.32912383 -244.15614223 208.33610606 C-240.5233064 208.3423583 -236.89046978 208.34294488 -233.25762939 208.34413147 C-226.37997412 208.34723926 -219.50233475 208.35544523 -212.62468648 208.36548096 C-204.79403149 208.37665922 -196.96337573 208.38215687 -189.13271475 208.38717639 C-173.02596719 208.39762829 -156.91923563 208.41521706 -140.8125 208.4375 C-140.74640219 207.49209414 -140.68030437 206.54668827 -140.6122036 205.57263374 C-140.52412752 204.32398474 -140.43605145 203.07533573 -140.3453064 201.78884888 C-140.25858358 200.55469301 -140.17186077 199.32053715 -140.08250999 198.04898262 C-139.71742449 193.16583018 -139.24156478 188.29898401 -138.7265625 183.4296875 C-138.62411224 182.45693878 -138.52166199 181.48419006 -138.41610718 180.48196411 C-138.20070425 178.45022689 -137.98387017 176.41864091 -137.765625 174.38720703 C-137.43747782 171.31229212 -137.12106858 168.23630107 -136.8046875 165.16015625 C-133.25398709 131.48746796 -133.25398709 131.48746796 -119.06640625 119.9375 C-112.59237586 115.62895984 -105.30615174 112.2966511 -97.48828125 112.33984375 C-96.46025391 112.34306641 -95.43222656 112.34628906 -94.37304688 112.34960938 C-92.76526367 112.36217773 -92.76526367 112.36217773 -91.125 112.375 C-90.04154297 112.37951172 -88.95808594 112.38402344 -87.84179688 112.38867188 C-85.16530915 112.40046257 -82.48893223 112.41691937 -79.8125 112.4375 C-79.83344727 111.15286865 -79.85439453 109.8682373 -79.87597656 108.54467773 C-79.94921892 103.70836857 -79.99460146 98.87210676 -80.03222656 94.03540039 C-80.05215241 91.95523798 -80.0793032 89.87513016 -80.11425781 87.79516602 C-80.37181668 72.05756151 -79.56141448 58.23896682 -72 44.0625 C-71.65235596 43.39387939 -71.30471191 42.72525879 -70.9465332 42.03637695 C-68.09296487 36.68618014 -64.913494 31.92321799 -60.8125 27.4375 C-60.01199219 26.54546875 -59.21148437 25.6534375 -58.38671875 24.734375 C-42.99899265 8.43362897 -22.35087665 -0.21327808 0 0 Z M-45.8125 36.4375 C-46.44929688 37.05238281 -47.08609375 37.66726562 -47.7421875 38.30078125 C-66.81687456 58.0960676 -63.8125 87.23506839 -63.8125 112.4375 C-21.5725 112.4375 20.6675 112.4375 64.1875 112.4375 C65.19131899 69.55683089 65.19131899 69.55683089 44.875 34.625 C31.56140792 21.92560348 14.81451166 16.82598414 -3.4453125 17.16015625 C-19.93379532 17.89959959 -34.28995338 24.77443452 -45.8125 36.4375 Z " fill="#2DA678" transform="translate(335.8125,39.5625)"/>
<path d="M0 0 C1.30329758 -0.00686325 2.60659515 -0.0137265 3.9493866 -0.02079773 C7.50945211 -0.0386802 11.06927048 -0.03756991 14.62936735 -0.03185534 C17.60879672 -0.02875579 20.58817913 -0.03486457 23.5676018 -0.04089409 C30.60093473 -0.05492209 37.63414616 -0.05339296 44.66748047 -0.04199219 C51.90608578 -0.03051743 59.1443203 -0.04457951 66.38287675 -0.07138866 C72.61328203 -0.09359391 78.84357134 -0.10017208 85.07401335 -0.09431225 C88.78826697 -0.09095237 92.50228307 -0.09329248 96.21650314 -0.11056328 C100.36201958 -0.12899957 104.50682171 -0.11479595 108.65234375 -0.09765625 C109.87133865 -0.10732422 111.09033356 -0.11699219 112.3462677 -0.12695312 C121.08972507 -0.05140676 126.93490571 1.77515921 134.20556641 6.52905273 C140.54538505 13.15704495 142.70110101 20.91792636 143.58056641 29.84155273 C143.69299683 30.82236816 143.80542725 31.80318359 143.92126465 32.8137207 C144.28359108 36.0088153 144.619503 39.20609909 144.95556641 42.40405273 C145.20688068 44.65817623 145.46016372 46.91208102 145.71533203 49.16577148 C146.23113736 53.7390824 146.73780494 58.31325467 147.23681641 62.88842773 C148.15098081 71.23323324 149.14881949 79.5673961 150.1546936 87.90155029 C150.45612669 90.40871292 150.75375507 92.9162974 151.05004883 95.42407227 C152.06908611 104.04427627 153.10707159 112.66175827 154.17495728 121.27606201 C154.7388866 125.82935311 155.29752569 130.38328763 155.85595703 134.93725586 C156.12724448 137.13712709 156.40110267 139.33668308 156.67773438 141.53588867 C160.73441853 173.8006789 160.73441853 173.8006789 153.95556641 183.40405273 C149.00404382 189.0886891 143.07960316 192.05712302 135.55459976 192.69015503 C131.26467593 192.80899577 126.9835251 192.83301081 122.69238281 192.82397461 C121.0424187 192.83132199 119.39245972 192.83991016 117.74250793 192.84963989 C113.27753078 192.87179402 108.81273851 192.87478965 104.34771395 192.87289238 C100.61279022 192.8727724 96.87790527 192.88134779 93.14299238 192.8896699 C84.32756087 192.90888195 75.51222405 192.91179578 66.69677734 192.9050293 C57.61941147 192.89838969 48.54245205 192.92125465 39.4651686 192.95834303 C31.6559747 192.9890859 23.84691126 193.0003951 16.0376581 192.99650621 C11.380466 192.99444349 6.72359032 192.9998441 2.06645584 193.0243988 C-2.31520114 193.04673948 -6.69619929 193.04472776 -11.07785988 193.02447128 C-12.67977859 193.02107415 -14.28174229 193.02609411 -15.88360023 193.04045486 C-25.7611362 193.12285172 -34.33516391 192.6507813 -41.93839073 185.66353607 C-47.91720465 179.33247007 -49.25458815 173.17472578 -49.16906738 164.69311523 C-48.97227076 159.49968907 -48.34312309 154.39582145 -47.65380859 149.24780273 C-47.50932785 148.11996368 -47.36484711 146.99212463 -47.21598816 145.83010864 C-46.90781435 143.42899348 -46.59639642 141.02829274 -46.2819519 138.62799072 C-45.45388687 132.3027661 -44.65080908 125.97435919 -43.84521484 119.64624023 C-43.68585953 118.39910248 -43.52650421 117.15196472 -43.36231995 115.86703491 C-42.22655479 106.94458953 -41.16706783 98.01738634 -40.20278931 89.07489014 C-39.98184203 87.02820458 -39.75727931 84.98194816 -39.53149414 82.93579102 C-39.45563583 82.24796539 -39.37977753 81.56013977 -39.30162048 80.85147095 C-39.22448318 80.15210419 -39.14734589 79.45273743 -39.06787109 78.73217773 C-38.49725767 73.5551947 -37.93375987 68.37751484 -37.37744141 63.19897461 C-36.76543065 57.52098888 -36.13174257 51.84569296 -35.48709106 46.17132568 C-35.23656579 43.93580442 -34.99280898 41.69951274 -34.75631714 39.46246338 C-34.42358245 36.32352499 -34.06667091 33.18816108 -33.70458984 30.05249023 C-33.61186798 29.12482849 -33.51914612 28.19716675 -33.4236145 27.24139404 C-32.33816655 18.25807359 -29.16878688 10.50419645 -22.08349609 4.65795898 C-14.69717236 0.11579439 -8.55891435 -0.03150274 0 0 Z " fill="#F7BA48" transform="translate(81.04443359375,263.595947265625)"/>
<path d="M0 0 C1.14001465 0.00902344 2.2800293 0.01804688 3.45458984 0.02734375 C21.75372469 0.40223 39.55036277 6.96997125 53.1875 19.4375 C54.52554688 20.63826172 54.52554688 20.63826172 55.890625 21.86328125 C65.8414644 31.25676489 72.87333778 42.40354702 77.1875 55.4375 C77.58134888 56.53892334 77.58134888 56.53892334 77.9831543 57.66259766 C81.29144323 68.40455436 80.51330174 79.57639062 80.375 90.6875 C80.35992604 92.80077171 80.34624244 94.91405383 80.33398438 97.02734375 C80.30119351 102.16432273 80.24956057 107.30079467 80.1875 112.4375 C80.8976123 112.4154248 81.60772461 112.39334961 82.33935547 112.37060547 C85.24684809 112.28580126 88.15420575 112.23739721 91.0625 112.1875 C92.07570313 112.15398437 93.08890625 112.12046875 94.1328125 112.0859375 C104.87255474 111.9482485 113.94092698 115.52820909 122.1875 122.4375 C131.31735031 131.66464889 134.4734837 142.07496797 135.7852478 154.75228882 C135.96322594 156.31240175 135.96322594 156.31240175 136.14479959 157.90403211 C136.50455938 161.08063829 136.84656923 164.25882587 137.1875 167.4375 C137.39462049 169.27691299 137.60311815 171.11617158 137.81319046 172.95524979 C138.43542058 178.43512535 139.03056821 183.91777196 139.62353516 189.40087891 C139.84879544 191.47036427 140.07421874 193.53983189 140.29978943 195.60928345 C140.9027269 201.14561825 141.50323926 206.68221337 142.10311937 212.21888018 C142.60689253 216.86641618 143.11188167 221.51381975 143.61685312 226.16122568 C144.80818877 237.12568402 145.99752401 248.09035803 147.18554688 259.05517578 C148.40695691 270.32782899 149.63168402 281.60011835 150.85803568 292.87223494 C151.91644641 302.60174182 152.97285537 312.33146463 154.02766454 322.06136262 C154.65530848 327.85080094 155.28367626 333.64015821 155.9139595 339.42930984 C156.50562469 344.86460103 157.0947715 350.30015957 157.68203926 355.73592758 C157.89681217 357.72005986 158.11244321 359.70409949 158.32903481 361.68803406 C162.93063886 403.85823954 162.93063886 403.85823954 151.21484375 418.984375 C144.97911599 425.72937272 135.60279916 432.16317437 126.14848429 432.56745183 C124.25527316 432.5709478 124.25527316 432.5709478 122.32381535 432.57451439 C121.61820877 432.57716622 120.9126022 432.57981804 120.1856136 432.58255023 C117.80325896 432.59025593 115.42095576 432.59080289 113.03858948 432.59140015 C111.32038506 432.59541395 109.60218159 432.59985204 107.88397926 432.6046797 C103.1480675 432.61666055 98.41216594 432.62229717 93.67624199 432.62686086 C88.57376124 432.63281136 83.47129271 432.64442272 78.36882019 432.65515137 C66.03768735 432.67969005 53.70655045 432.69430572 41.37540069 432.70721143 C37.89285858 432.71092263 34.41031686 432.71489593 30.92777514 432.7189641 C9.30570577 432.74420249 -12.31636423 432.76625758 -33.93844509 432.77869225 C-38.94846537 432.781622 -43.95848563 432.78458365 -48.96850586 432.78759766 C-50.83635498 432.78871673 -50.83635498 432.78871673 -52.74193842 432.78985842 C-72.90924661 432.80250916 -93.07646657 432.83572734 -113.24373352 432.87739949 C-133.94571421 432.91982601 -154.64764975 432.94338822 -175.34967381 432.94861281 C-186.97435585 432.95202636 -198.59890009 432.9637749 -210.22353935 432.99671555 C-220.125068 433.02472717 -230.0264306 433.0357105 -239.92799579 433.02452008 C-244.97862555 433.01933611 -250.02890767 433.02220341 -255.07948685 433.04698563 C-259.70809817 433.06950731 -264.3361127 433.06871553 -268.96473468 433.04978175 C-270.63443845 433.04698582 -272.30418294 433.05255759 -273.97382133 433.06759469 C-287.78633368 433.18433282 -298.41485029 430.71062644 -308.62109375 420.83203125 C-316.92246946 411.76118756 -320.4648124 402.64536857 -320.8125 390.4375 C-320.53369943 385.46382716 -319.94619557 380.53570511 -319.3371582 375.59375 C-319.16552195 374.1322711 -318.99484941 372.67067875 -318.82505798 371.20898438 C-318.36437165 367.26967961 -317.88936684 363.33222956 -317.41089654 359.39505005 C-317.01132395 356.0955904 -316.61900447 352.79528466 -316.22667664 349.49495697 C-315.30042361 341.70372089 -314.36265445 333.91393212 -313.41723633 326.125 C-312.44524108 318.11569605 -311.49114024 310.10440742 -310.5461095 302.0918808 C-309.73113885 295.18675882 -308.90580854 288.28292983 -308.07211751 281.38004303 C-307.57560971 277.26857255 -307.08272803 273.15675696 -306.5995121 269.04370117 C-306.14442182 265.17451392 -305.67627751 261.30711681 -305.19845009 257.44067383 C-305.02622786 256.03001181 -304.85839638 254.6188049 -304.69553757 253.20703125 C-302.83112171 237.09927302 -298.59409845 225.86637856 -286.1875 215.19921875 C-279.927436 210.55565154 -273.14092459 208.30976986 -265.3961792 208.31724548 C-264.29684052 208.31587082 -263.19750183 208.31449615 -262.06484985 208.31307983 C-260.86363495 208.31667511 -259.66242004 208.32027039 -258.42480469 208.32397461 C-256.52198227 208.32375557 -256.52198227 208.32375557 -254.58071899 208.3235321 C-251.10584589 208.32324526 -247.63100732 208.32912383 -244.15614223 208.33610606 C-240.5233064 208.3423583 -236.89046978 208.34294488 -233.25762939 208.34413147 C-226.37997412 208.34723926 -219.50233475 208.35544523 -212.62468648 208.36548096 C-204.79403149 208.37665922 -196.96337573 208.38215687 -189.13271475 208.38717639 C-173.02596719 208.39762829 -156.91923563 208.41521706 -140.8125 208.4375 C-140.74640219 207.49209414 -140.68030437 206.54668827 -140.6122036 205.57263374 C-140.52412752 204.32398474 -140.43605145 203.07533573 -140.3453064 201.78884888 C-140.25858358 200.55469301 -140.17186077 199.32053715 -140.08250999 198.04898262 C-139.71742449 193.16583018 -139.24156478 188.29898401 -138.7265625 183.4296875 C-138.62411224 182.45693878 -138.52166199 181.48419006 -138.41610718 180.48196411 C-138.20070425 178.45022689 -137.98387017 176.41864091 -137.765625 174.38720703 C-137.43747782 171.31229212 -137.12106858 168.23630107 -136.8046875 165.16015625 C-133.25398709 131.48746796 -133.25398709 131.48746796 -119.06640625 119.9375 C-112.59237586 115.62895984 -105.30615174 112.2966511 -97.48828125 112.33984375 C-96.46025391 112.34306641 -95.43222656 112.34628906 -94.37304688 112.34960938 C-92.76526367 112.36217773 -92.76526367 112.36217773 -91.125 112.375 C-90.04154297 112.37951172 -88.95808594 112.38402344 -87.84179688 112.38867188 C-85.16530915 112.40046257 -82.48893223 112.41691937 -79.8125 112.4375 C-79.83344727 111.15286865 -79.85439453 109.8682373 -79.87597656 108.54467773 C-79.94921892 103.70836857 -79.99460146 98.87210676 -80.03222656 94.03540039 C-80.05215241 91.95523798 -80.0793032 89.87513016 -80.11425781 87.79516602 C-80.37181668 72.05756151 -79.56141448 58.23896682 -72 44.0625 C-71.65235596 43.39387939 -71.30471191 42.72525879 -70.9465332 42.03637695 C-68.09296487 36.68618014 -64.913494 31.92321799 -60.8125 27.4375 C-60.01199219 26.54546875 -59.21148437 25.6534375 -58.38671875 24.734375 C-42.99899265 8.43362897 -22.35087665 -0.21327808 0 0 Z M-45.8125 36.4375 C-46.44929688 37.05238281 -47.08609375 37.66726562 -47.7421875 38.30078125 C-66.81687456 58.0960676 -63.8125 87.23506839 -63.8125 112.4375 C-21.5725 112.4375 20.6675 112.4375 64.1875 112.4375 C65.19131899 69.55683089 65.19131899 69.55683089 44.875 34.625 C31.56140792 21.92560348 14.81451166 16.82598414 -3.4453125 17.16015625 C-19.93379532 17.89959959 -34.28995338 24.77443452 -45.8125 36.4375 Z M-112.1875 136.875 C-112.83460938 137.61621094 -113.48171875 138.35742188 -114.1484375 139.12109375 C-116.91505396 142.97227582 -118.0277627 146.76721484 -118.59375 151.4375 C-118.71250488 152.3972876 -118.83125977 153.3570752 -118.95361328 154.34594727 C-119.0720459 155.36615967 -119.19047852 156.38637207 -119.3125 157.4375 C-119.43995605 158.49316162 -119.56741211 159.54882324 -119.69873047 160.63647461 C-120.64331678 168.60351817 -121.45608564 176.58100244 -122.16601562 184.57226562 C-122.48089563 188.1040278 -122.83478659 191.58544502 -123.36328125 195.09375 C-123.8296063 198.56483039 -123.91108177 201.87506825 -123.875 205.375 C-123.86597656 206.51839844 -123.85695312 207.66179687 -123.84765625 208.83984375 C-123.83605469 209.69707031 -123.82445312 210.55429688 -123.8125 211.4375 C-123.11125 211.7778125 -122.41 212.118125 -121.6875 212.46875 C-111.15599828 217.8489737 -104.02909345 224.19325081 -99.8125 235.4375 C-97.8762645 242.22093006 -97.03626708 248.97086837 -96.26171875 255.97265625 C-96.12275681 257.18728043 -95.98379486 258.4019046 -95.84062195 259.65333557 C-95.46679177 262.92446342 -95.09732128 266.19604988 -94.72936249 269.4678421 C-94.1115746 274.94145966 -93.47974827 280.41348775 -92.84922791 285.88565063 C-92.69178004 287.25224885 -92.53450293 288.61886674 -92.37739563 289.98550415 C-91.0695442 301.35653396 -89.67206008 312.71326904 -88.1875 324.0625 C-86.53466447 336.77787831 -84.89676455 349.49486899 -83.34136963 362.22259521 C-83.1181445 364.0387689 -82.89198761 365.85458528 -82.66253662 367.66998291 C-80.40923349 385.5277992 -79.45957427 399.87169759 -87.8125 416.4375 C-60.21350934 416.55435771 -32.61455583 416.64250031 -5.01536751 416.69656086 C7.79973501 416.72233051 20.61468371 416.75745767 33.4296875 416.81469727 C44.60065793 416.86456978 55.77151694 416.89680002 66.9425956 416.90794247 C72.85636001 416.91445462 78.76980571 416.92973482 84.68346786 416.96615028 C90.25340215 417.00017018 95.82288741 417.01054067 101.39291573 417.00303841 C103.43346283 417.00441025 105.47402546 417.01430668 107.5144825 417.03352737 C123.50675094 417.40001113 123.50675094 417.40001113 137.06518364 409.69728565 C143.62916842 402.81781676 144.62647307 396.45057626 144.4140625 387.19140625 C144.13128825 382.50612938 143.53090877 377.92238529 142.84008789 373.28149414 C141.99008088 367.23704069 141.40076901 361.16570274 140.78515625 355.09375 C140.65433655 353.81660629 140.52351685 352.53946259 140.38873291 351.22361755 C139.98668172 347.29507704 139.58681973 343.366319 139.1875 339.4375 C138.95669219 337.17129843 138.72581983 334.90510343 138.49487305 332.63891602 C138.38463303 331.55711563 138.27439301 330.47531525 138.16081238 329.36073303 C135.34550776 301.74755696 132.40120031 274.15438937 129.24588013 246.57788086 C126.7191036 224.47501296 124.3729133 202.35895452 122.140625 180.22460938 C121.21661259 154.14516472 121.21661259 154.14516472 108.48046875 132.98046875 C102.00427927 128.62255589 96.87869525 128.02552923 89.25 128.25 C86.259375 128.311875 83.26875 128.37375 80.1875 128.4375 C80.1875 136.3575 80.1875 144.2775 80.1875 152.4375 C82.29125 152.705625 84.395 152.97375 86.5625 153.25 C90.1484375 153.70703125 90.1484375 153.70703125 93.1875 154.4375 C95.50082486 157.90748729 95.52707563 159.36259248 95.1875 163.4375 C93.1875 166.4375 93.1875 166.4375 90.1875 167.4375 C87.43053896 167.57033689 84.69963388 167.64970305 81.94140625 167.67578125 C81.13388412 167.683853 80.326362 167.69192474 79.49436951 167.70024109 C77.78720231 167.71406151 76.08000772 167.72479279 74.37280273 167.73266602 C71.76297911 167.74991422 69.15441125 167.79382056 66.54492188 167.83789062 C64.88542597 167.84801506 63.22591932 167.85653194 61.56640625 167.86328125 C60.78713272 167.88078934 60.00785919 167.89829742 59.20497131 167.91633606 C55.64814671 167.9020969 53.59632591 167.73916378 50.69506836 165.59838867 C48.63553735 162.64633864 48.59992002 160.96297987 49.1875 157.4375 C50.5 155.125 50.5 155.125 53.1875 153.4375 C58.6325 152.9425 58.6325 152.9425 64.1875 152.4375 C64.1875 144.5175 64.1875 136.5975 64.1875 128.4375 C21.9475 128.4375 -20.2925 128.4375 -63.8125 128.4375 C-63.8125 136.3575 -63.8125 144.2775 -63.8125 152.4375 C-60.656875 152.8396875 -60.656875 152.8396875 -57.4375 153.25 C-53.8515625 153.70703125 -53.8515625 153.70703125 -50.8125 154.4375 C-48.49917514 157.90748729 -48.47292437 159.36259248 -48.8125 163.4375 C-50.8125 166.4375 -50.8125 166.4375 -53.8125 167.4375 C-56.56946104 167.57033689 -59.30036612 167.64970305 -62.05859375 167.67578125 C-62.86611588 167.683853 -63.673638 167.69192474 -64.50563049 167.70024109 C-66.21279769 167.71406151 -67.91999228 167.72479279 -69.62719727 167.73266602 C-72.23702089 167.74991422 -74.84558875 167.79382056 -77.45507812 167.83789062 C-79.11457403 167.84801506 -80.77408068 167.85653194 -82.43359375 167.86328125 C-83.21286728 167.88078934 -83.99214081 167.89829742 -84.79502869 167.91633606 C-88.35185329 167.9020969 -90.40367409 167.73916378 -93.30493164 165.59838867 C-95.36446265 162.64633864 -95.40007998 160.96297987 -94.8125 157.4375 C-93.5 155.125 -93.5 155.125 -90.8125 153.4375 C-87.1825 153.1075 -83.5525 152.7775 -79.8125 152.4375 C-79.8125 144.5175 -79.8125 136.5975 -79.8125 128.4375 C-84.515 128.31375 -84.515 128.31375 -89.3125 128.1875 C-90.28380859 128.15108398 -91.25511719 128.11466797 -92.25585938 128.07714844 C-100.70438812 127.97059661 -106.6450113 130.34843677 -112.1875 136.875 Z M-282.55859375 234.3984375 C-286.366077 240.59004577 -287.46717245 246.3897782 -288.2421875 253.51171875 C-288.35744781 254.49140121 -288.47270813 255.47108368 -288.59146118 256.48045349 C-288.9669886 259.69421497 -289.32726347 262.90949178 -289.6875 266.125 C-289.94892682 268.38601418 -290.21130972 270.646918 -290.47460938 272.90771484 C-291.26802238 279.74940138 -292.04192112 286.59320972 -292.8125 293.4375 C-293.03406821 295.39828734 -293.25574233 297.35906272 -293.47753906 299.31982422 C-293.68554905 301.15983048 -293.89355691 302.99983699 -294.1015625 304.83984375 C-294.20288986 305.73593857 -294.30421722 306.63203339 -294.40861511 307.55528259 C-294.91062568 311.99708724 -295.41052064 316.43910884 -295.90649414 320.8815918 C-297.01317616 330.74136237 -298.19574176 340.58844256 -299.45703125 350.4296875 C-299.59595795 351.51798859 -299.73488464 352.60628967 -299.87802124 353.72756958 C-300.55278301 359.00487034 -301.23608251 364.28083401 -301.93359375 369.55517578 C-305.28366838 389.29047165 -305.28366838 389.29047165 -298.8125 407.4375 C-294.11357645 412.71681315 -288.40194753 416.04471769 -281.33696938 416.81781673 C-280.10884718 416.82024663 -278.88072498 416.82267653 -277.61538696 416.82518005 C-276.92563573 416.83056559 -276.2358845 416.83595113 -275.52523172 416.84149987 C-273.23229297 416.85571666 -270.93993668 416.84869163 -268.64697266 416.84155273 C-266.99553466 416.84725966 -265.3441006 416.85422516 -263.69267273 416.86235046 C-259.21942802 416.88026267 -254.74637969 416.879117 -250.27310991 416.87340808 C-246.53317369 416.87031303 -242.79327501 416.87641229 -239.05334413 416.88244683 C-230.22693711 416.89648445 -221.40062689 416.89493747 -212.57421875 416.88354492 C-203.48156847 416.87206775 -194.38921328 416.88613435 -185.29660189 416.9129414 C-177.4781047 416.93512537 -169.65969995 416.9417296 -161.84117353 416.93586498 C-157.17678534 416.93250026 -152.51258624 416.93487808 -147.84822464 416.95211601 C-143.46008534 416.96762585 -139.07238176 416.96358505 -134.68425941 416.94481087 C-133.07870248 416.94113595 -131.47311297 416.94420132 -129.86758614 416.95469666 C-118.7231961 417.02195549 -109.7533842 416.0479234 -101.3203125 408.18359375 C-95.39542813 401.32239346 -95.44689385 394.10529589 -95.8125 385.4375 C-96.13241655 381.56619615 -96.61401593 377.72811378 -97.1328125 373.87890625 C-97.3414669 372.25571472 -97.3414669 372.25571472 -97.55433655 370.59973145 C-97.85354424 368.27540595 -98.15594322 365.95148939 -98.46127319 363.62796021 C-99.2815282 357.37914667 -100.07595229 351.12705098 -100.87109375 344.875 C-101.03452774 343.59319351 -101.19796173 342.31138702 -101.36634827 340.99073792 C-102.89197113 328.95623493 -104.27970365 316.90795472 -105.62545776 304.85217285 C-105.99769766 301.52060605 -106.37346694 298.1894549 -106.75024414 294.85839844 C-107.7393667 286.09920937 -108.72465697 277.34018955 -109.64183044 268.57313538 C-109.96664181 265.49408121 -110.30564253 262.41670502 -110.64810181 259.33956909 C-110.86474418 257.34444873 -111.06117414 255.34716449 -111.2565918 253.34985352 C-112.36664212 243.50176639 -114.91258735 235.24221219 -122.67578125 228.69140625 C-130.34237762 224.19236158 -137.24412618 223.99661795 -145.95458984 224.01757812 C-147.25642715 224.00910858 -148.55826447 224.00063904 -149.89955139 223.99191284 C-153.45134648 223.96980101 -157.00290886 223.96676092 -160.55476332 223.96866035 C-163.52918074 223.96878054 -166.50354971 223.96019706 -169.47795355 223.95188284 C-176.5003096 223.93268595 -183.52254679 223.92975135 -190.54492188 223.93652344 C-197.76825612 223.94316162 -204.9910794 223.92030074 -212.21431005 223.88320971 C-218.43541269 223.85243404 -224.65635162 223.84116115 -230.87752879 223.84504652 C-234.58460002 223.84710593 -238.29127342 223.84176112 -241.99827194 223.81715393 C-246.13639486 223.79058927 -250.27345018 223.80467425 -254.41162109 223.82226562 C-255.62544968 223.80900238 -256.83927826 223.79573914 -258.08988953 223.78207397 C-268.16773614 223.88132796 -276.01750168 226.47102442 -282.55859375 234.3984375 Z " fill="#443F3D" transform="translate(335.8125,39.5625)"/>
<path d="M0 0 C4.07775413 0.84953211 5.41067117 2.39561538 8 5.625 C8.58007812 9.09155273 8.58007812 9.09155273 8.53125 13.05859375 C8.53451294 13.77298111 8.53777588 14.48736847 8.5411377 15.22340393 C8.55417056 18.25525584 8.51026336 21.28559758 8.47021484 24.31713867 C8.34874132 37.25124399 9.6074165 48.47452545 17.9375 59.0625 C26.66264097 67.70196037 35.55179457 71.27126177 47.625 71.375 C59.97594886 71.10418914 68.88002217 67.7634136 77.87109375 59.08984375 C84.57825307 51.32430699 87.29885535 41.81762339 87.23828125 31.6796875 C87.25368721 30.17577209 87.26998981 28.67186563 87.28710938 27.16796875 C87.3035989 24.82645678 87.31245675 22.48560868 87.30541992 20.14404297 C87.30279753 17.86351171 87.33090796 15.58495428 87.36328125 13.3046875 C87.35307449 12.60874481 87.34286774 11.91280212 87.33235168 11.19577026 C87.40950281 7.34787615 87.91871306 5.72662765 90.35229492 2.68408203 C93 0.625 93 0.625 96 0 C100.07403425 0.84875714 101.4086441 2.40325601 104 5.625 C104.59936523 9.04736328 104.59936523 9.04736328 104.55859375 12.9453125 C104.55509666 13.994272 104.55509666 13.994272 104.55152893 15.06442261 C104.54181456 16.54209617 104.52007995 18.01973377 104.48706055 19.49707031 C104.43810303 21.72258729 104.42560046 23.94587052 104.41992188 26.171875 C104.33423122 37.29181298 103.66676914 47.68695332 98.4375 57.6875 C98.08598877 58.36868896 97.73447754 59.04987793 97.37231445 59.75170898 C89.92326253 73.62275406 78.39988024 82.11596588 63.43359375 86.7421875 C50.94922712 89.63635658 35.542008 89.44130231 24 83.625 C23.14792969 83.20089844 22.29585937 82.77679688 21.41796875 82.33984375 C7.37632352 74.59644799 -1.86823127 62.99160456 -6.52734375 47.6875 C-8.25919818 40.13031702 -8.29047883 32.62679049 -8.35009766 24.9206543 C-8.36671971 23.34661132 -8.39409161 21.77264571 -8.43212891 20.19897461 C-8.48696749 17.91220583 -8.50876873 15.62718171 -8.5234375 13.33984375 C-8.54610687 12.64076401 -8.56877625 11.94168427 -8.59213257 11.22142029 C-8.57544376 7.3510606 -8.0967814 5.74645531 -5.65478516 2.68188477 C-3 0.625 -3 0.625 0 0 Z " fill="#46403D" transform="translate(88,287.375)"/>
</svg>
